# xmcd
#
# Track frame offsets: 
#        150
#        22665
#        42090
#        66675
#
# Disc length: 1189 seconds
#
# Revision: 1
# Processed by: cddbd v1.5.2PL0 Copyright (c) Steve Scherf et al.
# Submitted via: ExactAudioCopyFreeDBPlugin 1.0
#
DISCID=2c04a304
DTITLE=D - 真昼の声 〜Synchronicity〜
DYEAR=2005
DGENRE=Visual_Rock
TTITLE0=真昼の声
TTITLE1=いばらの冠
TTITLE2=カナン 〜約束の地〜
TTITLE3=真昼の声 (voiceless)
EXTD=YEAR: 2005
EXTT0=
EXTT1=
EXTT2=
EXTT3=
PLAYORDER=
